<?xml version="1.0" encoding="utf-8"?>
<!-- Generator: Adobe Illustrator 24.1.1, SVG Export Plug-In . SVG Version: 6.00 Build 0)  -->
<svg version="1.1" id="Layer_1" xmlns="http://www.w3.org/2000/svg" xmlns:xlink="http://www.w3.org/1999/xlink" x="0px" y="0px"
	 viewBox="0 0 512 512" style="enable-background:new 0 0 512 512;" xml:space="preserve">
<g>
	<path d="M256,0c71.1,0,131.6,24.9,181.3,74.7S512,184.9,512,256c0,70.4-24.9,130.7-74.7,180.8S327.1,512,256,512
		s-131.6-25.1-181.3-75.2S0,326.4,0,256c0-71.1,24.9-131.6,74.7-181.3S184.9,0,256,0 M316.8,176v-41.6h-38.4
		c-15.6,0-28.8,5.9-39.5,17.6s-16,26.1-16,43.2v23.5h-40.5v39.5h40.5v118.4h45.9V258.1h48v-39.5h-48v-27.7c0-10,3.2-14.9,9.6-14.9
		H316.8"/>
</g>
</svg>
