<?xml version="1.0" encoding="utf-8"?>
<!-- Generator: Adobe Illustrator 21.0.0, SVG Export Plug-In . SVG Version: 6.00 Build 0)  -->
<svg version="1.1" id="Layer_1" xmlns="http://www.w3.org/2000/svg" xmlns:xlink="http://www.w3.org/1999/xlink" x="0px" y="0px"
	 viewBox="0 0 512 512" style="enable-background:new 0 0 512 512;" xml:space="preserve">
<g>
	<path d="M256,0C114.6,0,0,114.6,0,256c0,141.4,114.6,256,256,256c141.4,0,256-114.6,256-256C512,114.6,397.4,0,256,0z M276.9,319.3
		c-25.1,35.3-75.5,45.6-114.8,30.5c-39.4-15-67.4-56.7-64.1-99.1c0.9-51.9,48.7-97.5,100.6-95.7c24.9-1.1,48.3,9.7,67.4,24.9
		c-8.2,9.3-16.6,18.2-25.6,26.5c-22.9-15.8-55.5-20.3-78.5-2.1c-32.8,22.7-34.3,76.2-2.7,100.6c30.7,27.8,88.7,14,97.2-28.6
		c-19.2-0.3-38.5,0-57.7-0.6c-0.1-11.5-0.1-22.9-0.1-34.4c32.1-0.1,64.3-0.2,96.5,0.1C297,268.3,293.4,297,276.9,319.3z M415.4,270
		c-9.6,0.1-19.2,0.2-28.8,0.2c-0.1,9.6-0.2,19.2-0.2,28.8h-28.7c-0.1-9.6-0.1-19.1-0.2-28.7c-9.6-0.1-19.2-0.2-28.8-0.3v-28.6
		c9.6-0.1,19.2-0.2,28.8-0.2c0.1-9.6,0.2-19.2,0.2-28.8h28.7l0.2,28.8c9.6,0.1,19.2,0.1,28.8,0.2V270z"/>
</g>
</svg>
